REM DIRINDEX 1\2,1\3,1\4,1\5,1\6
REM DIRNAME "folder01","folder02","folder03","folder04","folder05","folder06"
TITLE ""
FILE "Disc3Track06.mp3" MP3
  TRACK 01 AUDIO
    TITLE "2:cjc161_04263"
    INDEX 01 00:00:00
  TRACK 02 AUDIO
    TITLE "0:"
    INDEX 01 00:03:44
  TRACK 03 AUDIO
    TITLE "3:cjc161_04264"
    INDEX 01 00:03:62
  TRACK 04 AUDIO
    TITLE "4:cjc161_04265"
    INDEX 01 00:05:15
  TRACK 05 AUDIO
    TITLE "5:cjc161_04266"
    INDEX 01 00:07:26
  TRACK 06 AUDIO
    TITLE "6:cjc161_04267"
    INDEX 01 00:08:55
  TRACK 07 AUDIO
    TITLE "0:"
    INDEX 01 00:14:34
  TRACK 08 AUDIO
    TITLE "3:cjc161_04268"
    INDEX 01 00:14:65
  TRACK 09 AUDIO
    TITLE "4:cjc161_04269"
    INDEX 01 00:16:11
  TRACK 10 AUDIO
    TITLE "5:cjc161_04270"
    INDEX 01 00:18:51
  TRACK 11 AUDIO
    TITLE "6:cjc161_04271"
    INDEX 01 00:19:72
  TRACK 12 AUDIO
    TITLE "0:"
    INDEX 01 00:24:50
  TRACK 13 AUDIO
    TITLE "3:cjc161_04272"
    INDEX 01 00:25:06
  TRACK 14 AUDIO
    TITLE "4:cjc161_04273"
    INDEX 01 00:26:33
  TRACK 15 AUDIO
    TITLE "5:cjc161_04274"
    INDEX 01 00:28:05
  TRACK 16 AUDIO
    TITLE "0:"
    INDEX 01 00:29:34
  TRACK 17 AUDIO
    TITLE "3:cjc161_04275"
    INDEX 01 00:29:71
  TRACK 18 AUDIO
    TITLE "4:cjc161_04276"
    INDEX 01 00:31:19
  TRACK 19 AUDIO
    TITLE "5:cjc161_04277"
    INDEX 01 00:33:16
  TRACK 20 AUDIO
    TITLE "6:cjc161_04278"
    INDEX 01 00:34:37
  TRACK 21 AUDIO
    TITLE "0:"
    INDEX 01 00:40:02
  TRACK 22 AUDIO
    TITLE "3:cjc161_04279"
    INDEX 01 00:40:35
  TRACK 23 AUDIO
    TITLE "4:cjc161_04280"
    INDEX 01 00:41:66
  TRACK 24 AUDIO
    TITLE "5:cjc161_04281"
    INDEX 01 00:44:17
  TRACK 25 AUDIO
    TITLE "0:"
    INDEX 01 00:45:50
  TRACK 26 AUDIO
    TITLE "3:cjc161_04282"
    INDEX 01 00:46:10
  TRACK 27 AUDIO
    TITLE "4:cjc161_04283"
    INDEX 01 00:47:41
  TRACK 28 AUDIO
    TITLE "5:cjc161_04284"
    INDEX 01 00:49:40
  TRACK 29 AUDIO
    TITLE "0:"
    INDEX 01 00:50:73
  TRACK 30 AUDIO
    TITLE "3:cjc161_04285"
    INDEX 01 00:51:35
  TRACK 31 AUDIO
    TITLE "4:cjc161_04286"
    INDEX 01 00:53:57
  TRACK 32 AUDIO
    TITLE "5:cjc161_04287"
    INDEX 01 00:56:56
  TRACK 33 AUDIO
    TITLE "6:cjc161_04288"
    INDEX 01 00:58:72
  TRACK 34 AUDIO
    TITLE "0:"
    INDEX 01 01:03:27
  TRACK 35 AUDIO
    TITLE "3:cjc161_04289"
    INDEX 01 01:03:60
  TRACK 36 AUDIO
    TITLE "4:cjc161_04290"
    INDEX 01 01:05:18
  TRACK 37 AUDIO
    TITLE "5:cjc161_04291"
    INDEX 01 01:06:35
  TRACK 38 AUDIO
    TITLE "0:"
    INDEX 01 01:07:69
  TRACK 39 AUDIO
    TITLE "3:cjc161_04292"
    INDEX 01 01:08:28
  TRACK 40 AUDIO
    TITLE "4:cjc161_04293"
    INDEX 01 01:09:58
  TRACK 41 AUDIO
    TITLE "5:cjc161_04294"
    INDEX 01 01:10:56
  TRACK 42 AUDIO
    TITLE "0:"
    INDEX 01 01:12:12
  TRACK 43 AUDIO
    TITLE "3:cjc161_04295"
    INDEX 01 01:12:47
  TRACK 44 AUDIO
    TITLE "4:cjc161_04296"
    INDEX 01 01:14:01
  TRACK 45 AUDIO
    TITLE "5:cjc161_04297"
    INDEX 01 01:17:72
  TRACK 46 AUDIO
    TITLE "6:cjc161_04298"
    INDEX 01 01:19:27
  TRACK 47 AUDIO
    TITLE "0:"
    INDEX 01 01:25:28
  TRACK 48 AUDIO
    TITLE "3:cjc161_04299"
    INDEX 01 01:25:59
  TRACK 49 AUDIO
    TITLE "4:cjc161_04300"
    INDEX 01 01:27:25
  TRACK 50 AUDIO
    TITLE "5:cjc161_04301"
    INDEX 01 01:29:20
  TRACK 51 AUDIO
    TITLE "0:"
    INDEX 01 01:30:66
  TRACK 52 AUDIO
    TITLE "3:cjc161_04302"
    INDEX 01 01:31:25
  TRACK 53 AUDIO
    TITLE "4:cjc161_04303"
    INDEX 01 01:32:50
  TRACK 54 AUDIO
    TITLE "5:cjc161_04304"
    INDEX 01 01:35:19
  TRACK 55 AUDIO
    TITLE "0:"
    INDEX 01 01:36:48
  TRACK 56 AUDIO
    TITLE "3:cjc161_04305"
    INDEX 01 01:37:06
  TRACK 57 AUDIO
    TITLE "4:cjc161_04306"
    INDEX 01 01:38:43
  TRACK 58 AUDIO
    TITLE "5:cjc161_04307"
    INDEX 01 01:40:69
  TRACK 59 AUDIO
    TITLE "6:cjc161_04308"
    INDEX 01 01:42:25
  TRACK 60 AUDIO
    TITLE "0:"
    INDEX 01 01:44:53
  TRACK 61 AUDIO
    TITLE "3:cjc161_04309"
    INDEX 01 01:45:09
  TRACK 62 AUDIO
    TITLE "4:cjc161_04310"
    INDEX 01 01:46:46
  TRACK 63 AUDIO
    TITLE "5:cjc161_04311"
    INDEX 01 01:47:39
  TRACK 64 AUDIO
    TITLE "6:cjc161_04312"
    INDEX 01 01:48:74
  TRACK 65 AUDIO
    TITLE "0:"
    INDEX 01 01:51:08
